<svg id="Layer_x0020_1" xmlns="http://www.w3.org/2000/svg" width="453.4" height="106.298" viewBox="0 0 453.4 106.298">
  <g id="_2698781639952" transform="translate(0 0)">
    <g id="Group_29" data-name="Group 29" transform="translate(0 19.814)">
      <path id="Path_1353" data-name="Path 1353" d="M16.606,258.77a33.01,33.01,0,0,1-8.172-.817,11.5,11.5,0,0,1-4.767-2.316A7.43,7.43,0,0,1,1.4,251.96a30.415,30.415,0,0,1-.863-4.9q-.273-3.178-.409-8.4t-.136-10.85q0-2.724.045-5.766t.091-5.992q.044-2.951.136-5.493T.535,206.2a29.422,29.422,0,0,1,.908-5.085,8.251,8.251,0,0,1,2.406-3.9,11.719,11.719,0,0,1,4.994-2.5,34.33,34.33,0,0,1,8.58-.863q12.167,0,18.2,4.494T41.666,211.1A17.07,17.07,0,0,1,39.8,219a11.687,11.687,0,0,1-6.4,5.448,11.578,11.578,0,0,1,4.63,1.906,15.14,15.14,0,0,1,5.857,8.036,16.953,16.953,0,0,1,.772,5.039A17.9,17.9,0,0,1,43.3,246.1a16.169,16.169,0,0,1-4.631,6.219A25.733,25.733,0,0,1,30,256.953a42.5,42.5,0,0,1-13.392,1.816Zm18.976-19.612a8.557,8.557,0,0,0-1.5-5.266,9.565,9.565,0,0,0-3.858-3.042,18.691,18.691,0,0,0-5.266-1.407,46.776,46.776,0,0,0-5.811-.364H14.427q-2.451,0-4.539.091-.09,1.907-.182,3.9t-.136,3.768q-.044,1.771-.045,3.087v1.861a19.241,19.241,0,0,0,.364,4.085,5.228,5.228,0,0,0,1.361,2.633,5.657,5.657,0,0,0,2.86,1.407,22.905,22.905,0,0,0,4.767.409q7.991,0,12.348-2.815a9.3,9.3,0,0,0,4.358-8.354Zm-16.8-36.682a19.286,19.286,0,0,0-4.858.5,7.169,7.169,0,0,0-2.815,1.316,3.919,3.919,0,0,0-1.27,2,9.762,9.762,0,0,0-.318,2.542v12.712q1.271.09,2.679.091h2.679a44.6,44.6,0,0,0,6.4-.454,22.6,22.6,0,0,0,5.675-1.543,10.424,10.424,0,0,0,4.086-3,7.545,7.545,0,0,0,1.543-4.9,8.092,8.092,0,0,0-3.314-6.673q-3.315-2.588-10.487-2.587ZM75.7,236.434q-1.271.09-2.588.136t-2.678.045H67.352q-1.544,0-3.451-.181v18.431q0,2.905-1.407,3.586a8,8,0,0,1-3.5.681A8.612,8.612,0,0,1,57.273,259a2.05,2.05,0,0,1-1.045-.545,2.742,2.742,0,0,1-.636-1.225,11.581,11.581,0,0,1-.318-2.27q-.182-1.634-.273-4.767t-.136-8.126q-.046-4.993-.091-12.121t-.045-16.752a28.6,28.6,0,0,1,.908-7.218,14.849,14.849,0,0,1,3.269-6.174,16.694,16.694,0,0,1,6.4-4.312,27.745,27.745,0,0,1,10.306-1.634,37.566,37.566,0,0,1,8.671,1,20,20,0,0,1,7.49,3.451,17.569,17.569,0,0,1,5.267,6.628,24.147,24.147,0,0,1,2,10.442q0,8.354-3.587,12.939A19.2,19.2,0,0,1,85.6,234.8l12.167,16.706a7.352,7.352,0,0,1,1.634,4.449,3.56,3.56,0,0,1-1.225,2.86,4.527,4.527,0,0,1-3.042,1.045,5.435,5.435,0,0,1-3.451-1.136,13.579,13.579,0,0,1-2.724-2.951L75.7,236.436Zm14.255-21.155q0-6.266-3.767-9.306t-11.94-3.042a21,21,0,0,0-4.994.5,5.994,5.994,0,0,0-3.178,1.861,8.2,8.2,0,0,0-1.68,3.767,31.057,31.057,0,0,0-.5,6.128v6.173q0,3.542.091,6.446,2.088.09,4.676.091h4.858a49.117,49.117,0,0,0,5.4-.318,14.532,14.532,0,0,0,5.312-1.634,11.158,11.158,0,0,0,4.085-3.813,12.416,12.416,0,0,0,1.634-6.855Zm66.462,20.792q-4.176.182-9.624.318t-12.893.136q-3.086,0-5.266-.091a14.823,14.823,0,0,1-3.542-.5,3.592,3.592,0,0,1-2-1.316,4.387,4.387,0,0,1-.636-2.542,5.833,5.833,0,0,1,.182-1.5,2.444,2.444,0,0,1,.817-1.225,5.689,5.689,0,0,1,1.77-.954,12.567,12.567,0,0,1,2.951-.59q1.361-.09,2.406-.182t2.043-.136q1-.046,2.133-.045h2.679q4.9,0,9.443.045t9.442.318a20.088,20.088,0,0,1,3.36.5,4.622,4.622,0,0,1,1.816.863,2.19,2.19,0,0,1,.772,1.271,8.9,8.9,0,0,1,.136,1.634,3.618,3.618,0,0,1-1.136,2.724q-1.135,1.089-4.858,1.27Z" transform="translate(0.01 -193.85)" fill="#2b2a29"/>
      <path id="Path_1354" data-name="Path 1354" d="M1860.051,201.824a48.425,48.425,0,0,1,5.857.409,28.7,28.7,0,0,1,6.22,1.452,15.872,15.872,0,0,1,4.9,2.724,5.2,5.2,0,0,1,2,4.131,3.743,3.743,0,0,1-.817,2.451,3.212,3.212,0,0,1-2.633,1,7.642,7.642,0,0,1-2.769-.545q-1.407-.544-3.178-1.136t-4.085-1.135a23.737,23.737,0,0,0-5.4-.545q-5.993,0-8.852,2.133a6.908,6.908,0,0,0-2.861,5.857,7,7,0,0,0,1.271,4.267,10.882,10.882,0,0,0,3.4,2.951,23.286,23.286,0,0,0,4.812,2.043q2.678.817,5.493,1.543a61.1,61.1,0,0,1,6.31,2,21.228,21.228,0,0,1,5.584,3.087,14.3,14.3,0,0,1,3.949,4.812,15.983,15.983,0,0,1,1.5,7.354,19.334,19.334,0,0,1-1.725,8.308,18.633,18.633,0,0,1-4.721,6.265,21.158,21.158,0,0,1-7.173,3.994,28.264,28.264,0,0,1-9.079,1.407,47.351,47.351,0,0,1-6.355-.5,32.03,32.03,0,0,1-6.9-1.725,17.19,17.19,0,0,1-5.539-3.269,6.515,6.515,0,0,1-2.27-5.039,4.256,4.256,0,0,1,.954-2.906,3.6,3.6,0,0,1,2.86-1.09,4.935,4.935,0,0,1,2.542.59,8.649,8.649,0,0,1,1.725,1.316,14.352,14.352,0,0,0,6.174,3.178,30.62,30.62,0,0,0,7.082.817,32.473,32.473,0,0,0,4.4-.318,12.773,12.773,0,0,0,4.222-1.316,8.7,8.7,0,0,0,3.178-2.86,8.809,8.809,0,0,0,1.271-5.039,9.032,9.032,0,0,0-1.135-4.767,9.987,9.987,0,0,0-3.042-3.132,17.622,17.622,0,0,0-4.494-2.088q-2.588-.817-5.584-1.634-3.359-.908-6.628-2a20.979,20.979,0,0,1-5.811-2.951,14.5,14.5,0,0,1-4.131-4.721,14.944,14.944,0,0,1-1.588-7.309,17.648,17.648,0,0,1,1.634-7.809,16.278,16.278,0,0,1,4.449-5.63,19.674,19.674,0,0,1,6.673-3.451,28.261,28.261,0,0,1,8.308-1.181Zm53.379,17.8a31.762,31.762,0,0,1,5.312.454,26.419,26.419,0,0,1,4.858,1.271,11.569,11.569,0,0,1,3.542,2,3.525,3.525,0,0,1,1.361,2.724q0,4-4.54,4a6.434,6.434,0,0,1-2.043-.318q-.954-.319-2.224-.636t-3.178-.636a29.427,29.427,0,0,0-4.721-.318q-5.993,0-9.261,4.086t-3.268,10.623q0,7.174,3.314,11.531a11.11,11.11,0,0,0,9.4,4.358,24.488,24.488,0,0,0,6.174-.636,17.864,17.864,0,0,0,3.858-1.452q1.5-.817,2.451-1.452a3.759,3.759,0,0,1,2.134-.636,4.371,4.371,0,0,1,2.587.681q.954.681.954,2.769a5.162,5.162,0,0,1-1.679,3.813,13.735,13.735,0,0,1-4.222,2.724,25.866,25.866,0,0,1-5.493,1.634,29.9,29.9,0,0,1-5.4.545q-10.987,0-17.251-6.083t-6.264-17.251a27.616,27.616,0,0,1,1.5-9.125,21.135,21.135,0,0,1,11.894-12.757,25.533,25.533,0,0,1,10.215-1.906Zm63.547,46.669a4.607,4.607,0,0,1-2.315-.5,3.428,3.428,0,0,1-1.316-1.316,5.941,5.941,0,0,1-.636-1.952q-.183-1.135-.273-2.406a18.6,18.6,0,0,1-5.856,4.721,19.333,19.333,0,0,1-9.125,1.906,26.359,26.359,0,0,1-7.219-1.045,17.372,17.372,0,0,1-6.673-3.631,19.115,19.115,0,0,1-4.9-6.946,27.522,27.522,0,0,1-1.906-10.986,35.9,35.9,0,0,1,1.27-9.715,23.429,23.429,0,0,1,3.858-7.945,18.779,18.779,0,0,1,6.492-5.4,19.883,19.883,0,0,1,9.17-2,19.465,19.465,0,0,1,8.263,1.68,17.571,17.571,0,0,1,6.537,5.493q0-1.09.091-2.225a6.586,6.586,0,0,1,.5-2.088,3.423,3.423,0,0,1,1.316-1.543,4.454,4.454,0,0,1,2.451-.59,3.686,3.686,0,0,1,2.542,1.09q1.181,1.089,1.361,4.721.273,4.812.409,8.625t.136,7.9q0,4.993-.091,9.17t-.455,8.9a20.872,20.872,0,0,1-.5,3.314,5.164,5.164,0,0,1-.772,1.816,2.081,2.081,0,0,1-1.089.772,4.62,4.62,0,0,1-1.271.181Zm-4.9-23.062a18.23,18.23,0,0,0-1.407-7.718,12.667,12.667,0,0,0-3.542-4.676,12.4,12.4,0,0,0-4.585-2.316,18.2,18.2,0,0,0-4.539-.636,12.17,12.17,0,0,0-5.584,1.181,10.251,10.251,0,0,0-3.767,3.224,13.947,13.947,0,0,0-2.134,4.812,25.259,25.259,0,0,0-.681,6.037q0,7.991,3.5,11.8a12.237,12.237,0,0,0,9.488,3.813,13.606,13.606,0,0,0,6.039-1.225,11.292,11.292,0,0,0,4.085-3.314,14.187,14.187,0,0,0,2.361-4.948,23.047,23.047,0,0,0,.772-6.038Zm42.937-15.979a15.892,15.892,0,0,0-6.037,1.09,37.018,37.018,0,0,0-6.038,3.269v5.584q0,3.676-.091,7.99t-.182,8.49q-.09,4.176-.363,6.991a26.544,26.544,0,0,1-.409,2.86,4.125,4.125,0,0,1-.636,1.589,1.743,1.743,0,0,1-1.089.681,11.591,11.591,0,0,1-3.541,0,2.036,2.036,0,0,1-1.136-.636,3.646,3.646,0,0,1-.727-1.5,18.14,18.14,0,0,1-.454-2.724q-.181-1.634-.318-4.358t-.227-5.948q-.092-3.223-.136-6.537t-.045-6.128q0-4.63.136-7.536a47.026,47.026,0,0,1,.5-5.175q.544-3.813,1.452-4.812a3.147,3.147,0,0,1,2.451-1,4.33,4.33,0,0,1,3.4,1.27,7.278,7.278,0,0,1,1.407,4.177,29.292,29.292,0,0,1,7.218-4.631,19.276,19.276,0,0,1,7.945-1.725,14.26,14.26,0,0,1,7.127,1.816,13.594,13.594,0,0,1,5.312,5.9,21.5,21.5,0,0,1,1.906,5.4,48.917,48.917,0,0,1,.908,6.219q.09,1.453.181,2.86t.136,3q.047,1.588.045,3.587v4.721q0,2.905-.091,5.448a24.884,24.884,0,0,1-.5,4.4,5.948,5.948,0,0,1-1.407,2.906,3.592,3.592,0,0,1-2.724,1.045q-4.176,0-4.358-4v-2.315q0-2.042-.045-4.767t-.091-5.539q-.046-2.815-.136-4.631-.09-1.452-.227-3.132t-.364-3.4q-.226-1.725-.59-3.314a16.709,16.709,0,0,0-.908-2.861q-1.271-3-3.178-3.813a10.26,10.26,0,0,0-4.086-.817Z" transform="translate(-1649.232 -201.006)" fill="#f05d84"/>
    </g>
    <path id="Path_1355" data-name="Path 1355" d="M3881.727,91.421c20.442-15.469,14.873-45.531-.753-54.961,1.508-9.378,4.078-19.679,6.146-29.114,2.021-9.22-4.326-8.577-5.893-4.538L3874.98,31.72c-.463,2.133-1.61,5.278-.782,7.382,1.06,2.694,17.22,9.894,13.705,29.8-3.768,21.337-28.211,28.529-42.983,18.031-5.086-3.615-6.875-8.736-10.467-5.745C3827.266,87.171,3857.817,109.515,3881.727,91.421Z" transform="translate(-3441.578 0.005)" fill="#f05d84" fill-rule="evenodd"/>
    <g id="Group_30" data-name="Group 30" transform="translate(408.436 52.546)">
      <path id="Path_1356" data-name="Path 1356" d="M4015.666,517.645a12.859,12.859,0,0,0-9.772-.26,13.371,13.371,0,0,0-1.834,1.013c-7.05,3.635-8.07,16.744,1.39,21.013a12.574,12.574,0,0,0,9.666.235A12.046,12.046,0,0,0,4015.666,517.645Zm-19.345,8.283a14.428,14.428,0,0,1,28.452,4.792c-1.178,8.415-9.288,13.235-16.618,12.029a15.239,15.239,0,0,1-9.693-6.185,14.649,14.649,0,0,1-2.141-10.635Z" transform="translate(-3996.081 -514.101)" fill="#231f20" fill-rule="evenodd"/>
      <path id="Path_1357" data-name="Path 1357" d="M4203.708,779.838c2.476.653,2.252.745,3.226,2.422l5.538,9.569c1.276,2.193,2.425,4.184,3.7,6.376.486.839,1.525,2.07,1.139,3.558-.493,1.9-3.508,3.952-5.968-.365-.65-1.142-1.184-2.047-1.846-3.189l-7.386-12.755c-2.2-3.741.566-2.533-1.267-5.551a8.009,8.009,0,0,0-.959-1.466,5.147,5.147,0,0,1,2.372-1.357l1.456,2.759Z" transform="translate(-4179.05 -750.201)" fill="#231f20" fill-rule="evenodd"/>
      <path id="Path_1358" data-name="Path 1358" d="M4098.067,557.694c-4.571-1.74-7.7-1.786-11.4-.517a8.465,8.465,0,0,1,5.167-1.734A8.928,8.928,0,0,1,4098.067,557.694Z" transform="translate(-4077.41 -551.215)" fill="#231f20" fill-rule="evenodd"/>
      <path id="Path_1359" data-name="Path 1359" d="M4080.508,738.076c-4.663,1.868-7.608-.946-9.589-2.236C4074.923,737.375,4074.4,738.3,4080.508,738.076Z" transform="translate(-4063.27 -713.176)" fill="#111224" fill-rule="evenodd"/>
    </g>
  </g>
</svg>
