<svg id="_2698781639952" xmlns="http://www.w3.org/2000/svg" width="270.381" height="63.389" viewBox="0 0 270.381 63.389">
  <g id="Group_29" data-name="Group 29" transform="translate(0 11.816)">
    <path id="Path_1353" data-name="Path 1353" d="M9.9,232.564a19.685,19.685,0,0,1-4.873-.487A6.856,6.856,0,0,1,2.183,230.7,4.431,4.431,0,0,1,.829,228.5a18.138,18.138,0,0,1-.514-2.924q-.163-1.9-.244-5.008T-.01,214.1q0-1.625.027-3.438t.054-3.574q.027-1.76.081-3.276t.163-2.6a17.545,17.545,0,0,1,.541-3.032,4.92,4.92,0,0,1,1.435-2.328,6.989,6.989,0,0,1,2.978-1.489,20.472,20.472,0,0,1,5.117-.514q7.256,0,10.856,2.68a8.923,8.923,0,0,1,3.6,7.607,10.18,10.18,0,0,1-1.11,4.711,6.969,6.969,0,0,1-3.817,3.249,6.9,6.9,0,0,1,2.761,1.137,9.028,9.028,0,0,1,3.493,4.792,10.11,10.11,0,0,1,.46,3,10.673,10.673,0,0,1-.812,3.98,9.642,9.642,0,0,1-2.762,3.709,15.345,15.345,0,0,1-5.17,2.762A25.347,25.347,0,0,1,9.9,232.564Zm11.316-11.7a5.1,5.1,0,0,0-.894-3.14,5.7,5.7,0,0,0-2.3-1.814,11.147,11.147,0,0,0-3.14-.839,27.9,27.9,0,0,0-3.465-.217H8.6q-1.462,0-2.707.054-.054,1.137-.108,2.328T5.7,219.489q-.027,1.056-.027,1.841v1.11a11.474,11.474,0,0,0,.217,2.436,3.118,3.118,0,0,0,.812,1.57,3.373,3.373,0,0,0,1.705.839,13.659,13.659,0,0,0,2.843.244q4.765,0,7.364-1.679a5.545,5.545,0,0,0,2.6-4.982ZM11.2,198.994a11.5,11.5,0,0,0-2.9.3,4.275,4.275,0,0,0-1.679.785,2.337,2.337,0,0,0-.758,1.191,5.821,5.821,0,0,0-.19,1.516v7.581q.758.054,1.6.054h1.6a26.6,26.6,0,0,0,3.817-.271,13.479,13.479,0,0,0,3.384-.92,6.216,6.216,0,0,0,2.437-1.787,4.5,4.5,0,0,0,.92-2.924,4.826,4.826,0,0,0-1.976-3.979q-1.977-1.543-6.254-1.543Zm33.943,20.25q-.758.054-1.543.081t-1.6.027H40.161q-.921,0-2.058-.108v10.991q0,1.733-.839,2.139a4.77,4.77,0,0,1-2.085.406,5.137,5.137,0,0,1-1.029-.081,1.223,1.223,0,0,1-.623-.325,1.635,1.635,0,0,1-.379-.731,6.907,6.907,0,0,1-.19-1.354q-.109-.975-.163-2.843t-.081-4.846q-.027-2.978-.054-7.228t-.027-9.99a17.058,17.058,0,0,1,.541-4.3,8.855,8.855,0,0,1,1.949-3.682,9.956,9.956,0,0,1,3.817-2.572,16.546,16.546,0,0,1,6.146-.975,22.4,22.4,0,0,1,5.171.6,11.926,11.926,0,0,1,4.467,2.058,10.477,10.477,0,0,1,3.141,3.953,14.4,14.4,0,0,1,1.191,6.227q0,4.982-2.139,7.716a11.451,11.451,0,0,1-5.874,3.872l7.256,9.962a4.385,4.385,0,0,1,.975,2.653,2.123,2.123,0,0,1-.731,1.705,2.7,2.7,0,0,1-1.814.623,3.241,3.241,0,0,1-2.058-.677,8.1,8.1,0,0,1-1.624-1.76l-7.905-11.533Zm8.5-12.616a6.707,6.707,0,0,0-2.247-5.55q-2.247-1.814-7.12-1.814a12.521,12.521,0,0,0-2.978.3,3.574,3.574,0,0,0-1.895,1.11,4.893,4.893,0,0,0-1,2.247,18.52,18.52,0,0,0-.3,3.655v3.681q0,2.112.054,3.844,1.245.054,2.789.054h2.9a29.292,29.292,0,0,0,3.222-.19,8.666,8.666,0,0,0,3.168-.975,6.654,6.654,0,0,0,2.436-2.274,7.4,7.4,0,0,0,.975-4.088Zm39.634,12.4q-2.49.109-5.739.19t-7.688.081q-1.84,0-3.14-.054a8.84,8.84,0,0,1-2.112-.3,2.142,2.142,0,0,1-1.191-.785,2.616,2.616,0,0,1-.379-1.516,3.478,3.478,0,0,1,.108-.894,1.457,1.457,0,0,1,.487-.731,3.393,3.393,0,0,1,1.056-.569,7.494,7.494,0,0,1,1.76-.352q.812-.054,1.435-.109t1.218-.081q.6-.027,1.272-.027h1.6q2.924,0,5.631.027t5.631.19a11.98,11.98,0,0,1,2,.3,2.756,2.756,0,0,1,1.083.514,1.306,1.306,0,0,1,.46.758,5.309,5.309,0,0,1,.081.975,2.158,2.158,0,0,1-.677,1.624,4.778,4.778,0,0,1-2.9.758Z" transform="translate(0.01 -193.85)" fill="#2b2a29"/>
    <path id="Path_1354" data-name="Path 1354" d="M1850.742,201.823a28.881,28.881,0,0,1,3.493.244,17.12,17.12,0,0,1,3.709.866,9.467,9.467,0,0,1,2.924,1.624,3.1,3.1,0,0,1,1.191,2.464,2.233,2.233,0,0,1-.487,1.462,1.915,1.915,0,0,1-1.57.6,4.556,4.556,0,0,1-1.651-.325q-.839-.325-1.9-.677t-2.436-.677a14.155,14.155,0,0,0-3.222-.325,8.85,8.85,0,0,0-5.279,1.272,4.119,4.119,0,0,0-1.706,3.493,4.174,4.174,0,0,0,.758,2.545,6.49,6.49,0,0,0,2.03,1.76,13.887,13.887,0,0,0,2.87,1.218q1.6.487,3.276.92a36.447,36.447,0,0,1,3.763,1.191,12.665,12.665,0,0,1,3.33,1.841,8.532,8.532,0,0,1,2.355,2.87,9.531,9.531,0,0,1,.893,4.385,11.528,11.528,0,0,1-1.029,4.954,11.11,11.11,0,0,1-2.815,3.736,12.616,12.616,0,0,1-4.278,2.382,16.855,16.855,0,0,1-5.414.839,28.236,28.236,0,0,1-3.79-.3,19.1,19.1,0,0,1-4.115-1.029,10.248,10.248,0,0,1-3.3-1.949,3.885,3.885,0,0,1-1.354-3,2.538,2.538,0,0,1,.569-1.733,2.146,2.146,0,0,1,1.705-.65,2.943,2.943,0,0,1,1.516.352,5.159,5.159,0,0,1,1.029.785,8.559,8.559,0,0,0,3.682,1.9,18.258,18.258,0,0,0,4.223.487,19.364,19.364,0,0,0,2.626-.19,7.615,7.615,0,0,0,2.518-.785,5.191,5.191,0,0,0,1.9-1.705,5.252,5.252,0,0,0,.758-3,5.386,5.386,0,0,0-.677-2.843,5.955,5.955,0,0,0-1.814-1.868,10.507,10.507,0,0,0-2.68-1.245q-1.543-.487-3.33-.975-2-.541-3.953-1.191a12.514,12.514,0,0,1-3.465-1.76,8.645,8.645,0,0,1-2.464-2.815,8.91,8.91,0,0,1-.947-4.359,10.526,10.526,0,0,1,.975-4.657,9.708,9.708,0,0,1,2.653-3.357,11.73,11.73,0,0,1,3.979-2.058,16.852,16.852,0,0,1,4.954-.7Zm31.832,10.612a18.941,18.941,0,0,1,3.168.271,15.753,15.753,0,0,1,2.9.758,6.9,6.9,0,0,1,2.112,1.191,2.1,2.1,0,0,1,.812,1.624q0,2.383-2.708,2.383a3.839,3.839,0,0,1-1.219-.19q-.568-.19-1.326-.379t-1.9-.379a17.546,17.546,0,0,0-2.815-.19,6.665,6.665,0,0,0-5.523,2.437,9.831,9.831,0,0,0-1.949,6.335,11.068,11.068,0,0,0,1.977,6.877,6.626,6.626,0,0,0,5.6,2.6,14.6,14.6,0,0,0,3.682-.379,10.649,10.649,0,0,0,2.3-.866q.894-.487,1.462-.866a2.242,2.242,0,0,1,1.273-.379,2.607,2.607,0,0,1,1.543.406,1.931,1.931,0,0,1,.569,1.651,3.079,3.079,0,0,1-1,2.274,8.2,8.2,0,0,1-2.518,1.624,15.424,15.424,0,0,1-3.275.975,17.831,17.831,0,0,1-3.222.325q-6.552,0-10.288-3.628t-3.736-10.287a16.469,16.469,0,0,1,.894-5.442,12.6,12.6,0,0,1,7.093-7.607,15.228,15.228,0,0,1,6.092-1.137Zm37.9,27.83a2.747,2.747,0,0,1-1.381-.3,2.042,2.042,0,0,1-.785-.785,3.532,3.532,0,0,1-.379-1.164q-.109-.677-.163-1.435a11.1,11.1,0,0,1-3.492,2.815,11.529,11.529,0,0,1-5.442,1.137,15.718,15.718,0,0,1-4.3-.623,10.359,10.359,0,0,1-3.979-2.166,11.4,11.4,0,0,1-2.924-4.142,16.414,16.414,0,0,1-1.137-6.552,21.411,21.411,0,0,1,.758-5.793,13.971,13.971,0,0,1,2.3-4.738,11.2,11.2,0,0,1,3.872-3.222,11.857,11.857,0,0,1,5.469-1.191,11.609,11.609,0,0,1,4.927,1,10.478,10.478,0,0,1,3.9,3.276q0-.65.054-1.327a3.929,3.929,0,0,1,.3-1.245,2.042,2.042,0,0,1,.785-.92,2.655,2.655,0,0,1,1.462-.352,2.2,2.2,0,0,1,1.516.65,4.249,4.249,0,0,1,.812,2.815q.163,2.87.244,5.144t.081,4.71q0,2.978-.054,5.469t-.271,5.306a12.47,12.47,0,0,1-.3,1.976,3.08,3.08,0,0,1-.46,1.083,1.241,1.241,0,0,1-.65.46,2.757,2.757,0,0,1-.758.108Zm-2.924-13.753a10.873,10.873,0,0,0-.839-4.6,7.551,7.551,0,0,0-2.112-2.789,7.4,7.4,0,0,0-2.734-1.381,10.857,10.857,0,0,0-2.707-.379,7.258,7.258,0,0,0-3.33.7,6.113,6.113,0,0,0-2.247,1.922,8.316,8.316,0,0,0-1.273,2.87,15.058,15.058,0,0,0-.406,3.6q0,4.765,2.084,7.039a7.3,7.3,0,0,0,5.658,2.274,8.113,8.113,0,0,0,3.6-.731,6.733,6.733,0,0,0,2.436-1.976,8.457,8.457,0,0,0,1.408-2.951,13.739,13.739,0,0,0,.46-3.6Zm25.605-9.529a9.476,9.476,0,0,0-3.6.65,22.069,22.069,0,0,0-3.6,1.949v3.33q0,2.192-.054,4.765t-.109,5.063q-.054,2.49-.216,4.169a15.889,15.889,0,0,1-.244,1.705,2.46,2.46,0,0,1-.379.948,1.039,1.039,0,0,1-.65.406,6.911,6.911,0,0,1-2.111,0,1.214,1.214,0,0,1-.677-.379,2.175,2.175,0,0,1-.433-.894,10.825,10.825,0,0,1-.271-1.624q-.108-.975-.19-2.6t-.135-3.547q-.055-1.922-.081-3.9t-.027-3.655q0-2.761.081-4.494a28.092,28.092,0,0,1,.3-3.086,6.155,6.155,0,0,1,.866-2.87,1.877,1.877,0,0,1,1.462-.6,2.582,2.582,0,0,1,2.03.758,4.339,4.339,0,0,1,.839,2.491,17.469,17.469,0,0,1,4.3-2.762,11.5,11.5,0,0,1,4.738-1.029,8.5,8.5,0,0,1,4.25,1.083,8.107,8.107,0,0,1,3.168,3.519,12.813,12.813,0,0,1,1.137,3.222,29.148,29.148,0,0,1,.541,3.709q.054.867.108,1.705t.081,1.787q.028.947.027,2.139v2.815q0,1.733-.054,3.249a14.835,14.835,0,0,1-.3,2.626,3.544,3.544,0,0,1-.839,1.733,2.141,2.141,0,0,1-1.624.623,2.267,2.267,0,0,1-2.6-2.383v-1.381q0-1.218-.026-2.843t-.055-3.3q-.027-1.679-.081-2.762-.054-.866-.135-1.868t-.217-2.03q-.135-1.029-.352-1.976a9.978,9.978,0,0,0-.542-1.706,3.983,3.983,0,0,0-1.9-2.274,6.119,6.119,0,0,0-2.437-.487Z" transform="translate(-1725.022 -201.334)" fill="#f05d84"/>
  </g>
  <path id="Path_1355" data-name="Path 1355" d="M3862.213,54.516c12.19-9.225,8.87-27.152-.449-32.775.9-5.592,2.432-11.736,3.665-17.362,1.205-5.5-2.58-5.115-3.514-2.706l-3.725,17.241c-.276,1.272-.96,3.148-.466,4.4.632,1.607,10.269,5.9,8.173,17.77-2.247,12.724-16.823,17.013-25.633,10.752-3.033-2.156-4.1-5.209-6.242-3.426C3829.735,51.981,3847.955,65.307,3862.213,54.516Z" transform="translate(-3599.734 0.005)" fill="#f05d84" fill-rule="evenodd"/>
  <g id="Group_30" data-name="Group 30" transform="translate(243.567 31.335)">
    <path id="Path_1356" data-name="Path 1356" d="M4007.76,516.214a7.668,7.668,0,0,0-5.828-.155,7.994,7.994,0,0,0-1.094.6c-4.2,2.168-4.812,9.985.829,12.531a7.5,7.5,0,0,0,5.764.14A7.183,7.183,0,0,0,4007.76,516.214Zm-11.536,4.94a8.6,8.6,0,1,1,7.057,10.031,9.087,9.087,0,0,1-5.78-3.688,8.732,8.732,0,0,1-1.277-6.342Z" transform="translate(-3996.081 -514.101)" fill="#231f20" fill-rule="evenodd"/>
    <path id="Path_1357" data-name="Path 1357" d="M4202.162,778.724c1.477.389,1.344.444,1.924,1.445l3.3,5.706c.761,1.308,1.446,2.5,2.2,3.8a2.8,2.8,0,0,1,.679,2.122c-.293,1.133-2.092,2.357-3.559-.218-.388-.681-.706-1.221-1.1-1.9l-4.4-7.606c-1.31-2.231.338-1.51-.755-3.31a4.8,4.8,0,0,0-.572-.874,3.068,3.068,0,0,1,1.414-.809l.868,1.645Z" transform="translate(-4187.458 -761.051)" fill="#231f20" fill-rule="evenodd"/>
    <path id="Path_1358" data-name="Path 1358" d="M4093.466,556.784a9.021,9.021,0,0,0-6.8-.308,5.047,5.047,0,0,1,3.081-1.034A5.324,5.324,0,0,1,4093.466,556.784Z" transform="translate(-4081.148 -552.92)" fill="#231f20" fill-rule="evenodd"/>
    <path id="Path_1359" data-name="Path 1359" d="M4076.637,737.174c-2.781,1.114-4.537-.564-5.718-1.334C4073.307,736.755,4072.994,737.306,4076.637,737.174Z" transform="translate(-4066.358 -722.325)" fill="#111224" fill-rule="evenodd"/>
  </g>
</svg>
